<svg xmlns="http://www.w3.org/2000/svg" xmlns:xlink="http://www.w3.org/1999/xlink" width="1080" viewBox="0 0 810 809.999993" height="1080" preserveAspectRatio="xMidYMid meet"><path fill="#000000" d="M 665.53125 406.539062 L 665.449219 406.539062 L 637.050781 406.578125 C 633.148438 406.613281 623.488281 411.300781 617.292969 418.085938 L 570.445312 469.191406 C 568.859375 470.9375 566.574219 471.90625 564.203125 471.90625 L 513.292969 471.90625 C 507.246094 471.90625 503.761719 473.839844 501.308594 476.519531 C 498.867188 479.144531 497.476562 482.910156 497.476562 486.785156 C 497.476562 490.652344 498.867188 494.457031 501.308594 497.089844 C 503.753906 499.761719 507.238281 501.664062 513.292969 501.664062 L 573.816406 501.664062 C 578.425781 501.664062 582.230469 499.917969 584.199219 497.4375 L 601.171875 475.894531 C 605.628906 470.277344 614.613281 472.410156 616.050781 479.464844 L 634.613281 574.96875 L 709.902344 574.96875 L 680.449219 424.277344 C 679.371094 418.734375 677.273438 413.890625 674.757812 410.90625 C 672.234375 407.984375 669.757812 406.539062 665.53125 406.539062 Z M 665.449219 389.6875 C 674.554688 389.652344 682.464844 393.980469 687.582031 399.992188 C 692.730469 406.035156 695.566406 413.4375 697.039062 421.03125 L 728.382812 581.796875 C 729.429688 586.984375 725.4375 591.796875 720.167969 591.832031 L 627.640625 591.832031 C 623.617188 591.796875 620.164062 588.96875 619.390625 585.011719 L 603.03125 500.734375 L 596.097656 509.335938 C 590.175781 515.191406 582.191406 518.476562 573.859375 518.523438 L 513.300781 518.523438 C 503.183594 518.523438 494.542969 514.617188 488.921875 508.523438 C 483.265625 502.445312 480.640625 494.535156 480.640625 486.792969 C 480.640625 479.003906 483.265625 471.101562 488.921875 465.015625 C 494.542969 458.921875 503.183594 455.015625 513.300781 455.015625 L 560.527344 455.015625 L 604.898438 406.660156 C 613.582031 397.164062 624.777344 389.761719 637.058594 389.726562 Z M 665.449219 389.6875 " fill-opacity="1" fill-rule="nonzero"></path><path fill="#000000" d="M 363.53125 539.832031 L 447.21875 539.832031 C 466.363281 539.832031 482.753906 554.523438 488.914062 568.777344 C 495.855469 584.871094 496.390625 602.226562 494.5 612.144531 C 492.363281 623.609375 490.78125 628.027344 487.714844 632.523438 C 485.429688 635.855469 480.042969 639.695312 476.488281 640.9375 L 334.195312 640.9375 C 330.664062 639.695312 325.207031 635.855469 322.953125 632.523438 C 319.890625 628.066406 318.34375 623.617188 316.167969 612.144531 C 314.316406 602.226562 314.859375 584.863281 321.792969 568.777344 C 327.917969 554.5625 344.386719 539.832031 363.53125 539.832031 Z M 363.53125 522.980469 C 336.25 522.980469 314.972656 541.964844 306.296875 562.082031 C 297.816406 581.761719 297.003906 601.566406 299.601562 615.285156 C 301.921875 627.484375 304.28125 635.199219 309.011719 642.097656 C 313.929688 649.351562 321.371094 654.960938 329.851562 657.480469 C 330.625 657.667969 331.449219 657.785156 332.226562 657.785156 L 478.496094 657.785156 C 479.269531 657.785156 480.082031 657.667969 480.816406 657.480469 C 489.335938 654.960938 496.710938 649.304688 501.671875 642.097656 C 506.351562 635.199219 508.792969 627.484375 511.082031 615.285156 C 513.679688 601.566406 512.867188 581.769531 504.417969 562.082031 C 495.734375 541.964844 474.539062 522.980469 447.21875 522.980469 Z M 363.53125 522.980469 " fill-opacity="1" fill-rule="nonzero"></path><path fill="#000000" d="M 449.167969 428.433594 C 459.585938 452.621094 448.542969 480.511719 424.375 490.9375 C 400.113281 501.402344 372.175781 490.347656 361.707031 466.140625 C 351.292969 441.914062 362.296875 414.097656 386.585938 403.636719 C 398.722656 398.410156 411.695312 398.519531 423.011719 403.019531 C 434.328125 407.515625 443.886719 416.300781 449.167969 428.433594 Z M 379.957031 388.105469 C 347.289062 402.171875 332.1875 440.25 346.25 472.851562 C 360.316406 505.472656 398.410156 520.5 431.03125 506.441406 C 463.617188 492.417969 478.683594 454.296875 464.621094 421.738281 C 457.570312 405.46875 444.558594 393.527344 429.207031 387.449219 C 413.859375 381.320312 396.234375 381.089844 379.957031 388.105469 Z M 379.957031 388.105469 " fill-opacity="1" fill-rule="evenodd"></path><path fill="#000000" d="M 581.84375 525.621094 C 580.949219 525.5 580.058594 525.539062 579.199219 525.738281 C 574.625 526.625 571.679688 531.042969 572.535156 535.621094 L 580.175781 574.984375 L 527.941406 574.984375 C 523.292969 574.984375 519.527344 578.738281 519.496094 583.398438 C 519.496094 588.046875 523.285156 591.847656 527.941406 591.847656 L 590.441406 591.847656 C 595.746094 591.8125 599.699219 586.996094 598.691406 581.8125 L 589.117188 532.40625 C 588.464844 528.789062 585.515625 526.042969 581.84375 525.621094 Z M 581.84375 525.621094 " fill-opacity="1" fill-rule="nonzero"></path><path fill="#000000" d="M 369.691406 291.304688 L 441.058594 291.304688 C 456.953125 291.304688 470.550781 303.121094 475.515625 314.199219 C 480.511719 325.359375 481.472656 337.328125 480.660156 345.355469 L 330.050781 345.355469 C 329.195312 337.328125 330.199219 325.359375 335.199219 314.199219 C 340.164062 303.15625 353.800781 291.304688 369.691406 291.304688 Z M 369.691406 274.457031 C 345.972656 274.457031 327.410156 290.21875 319.75 307.308594 C 313.667969 320.871094 312.152344 334.472656 313.082031 345.363281 L 264.878906 345.363281 C 260.839844 345.363281 257.359375 348.226562 256.585938 352.214844 L 241.890625 427.742188 C 241 432.320312 243.980469 436.769531 248.59375 437.625 C 253.171875 438.515625 257.582031 435.53125 258.476562 430.996094 L 271.804688 362.289062 L 538.816406 362.289062 L 552.179688 430.996094 C 553.074219 435.570312 557.527344 438.554688 562.097656 437.625 C 566.671875 436.730469 569.65625 432.320312 568.726562 427.742188 L 554.09375 352.214844 C 553.355469 348.226562 549.867188 345.363281 545.796875 345.363281 L 497.59375 345.363281 C 498.515625 334.472656 496.96875 320.871094 490.890625 307.308594 C 483.25 290.257812 464.769531 274.457031 441.054688 274.457031 Z M 369.691406 274.457031 " fill-opacity="1" fill-rule="nonzero"></path><path fill="#000000" d="M 405.105469 169.019531 C 419.679688 168.898438 433.664062 177.316406 439.863281 191.644531 C 448.113281 210.667969 439.394531 232.679688 420.332031 240.894531 C 401.160156 249.144531 379.265625 240.46875 371.015625 221.367188 C 362.800781 202.261719 371.4375 180.328125 390.617188 172.078125 C 395.378906 170.023438 400.261719 169.054688 405.105469 169.019531 Z M 404.992188 152.152344 C 397.941406 152.191406 390.769531 153.632812 383.914062 156.617188 C 356.359375 168.433594 343.6875 200.550781 355.503906 227.988281 C 355.503906 228.023438 355.503906 228.023438 355.503906 228.070312 C 367.398438 255.535156 399.523438 268.25 426.992188 256.390625 C 454.464844 244.539062 467.21875 212.414062 455.359375 184.976562 C 446.445312 164.40625 426.179688 152.003906 404.992188 152.152344 Z M 404.992188 152.152344 " fill-opacity="1" fill-rule="nonzero"></path><path fill="#000000" d="M 219.148438 297.695312 C 229.066406 320.679688 218.574219 347.253906 195.585938 357.175781 C 172.492188 367.140625 145.949219 356.640625 135.988281 333.550781 C 126.070312 310.523438 136.53125 283.992188 159.667969 274.03125 C 171.175781 269.070312 183.570312 269.261719 194.308594 273.523438 C 205.085938 277.789062 214.148438 286.152344 219.148438 297.695312 Z M 152.964844 258.527344 C 121.5 272.089844 106.980469 308.789062 120.496094 340.214844 C 134.058594 371.632812 170.789062 386.199219 202.214844 372.644531 C 233.640625 359.125 248.214844 322.351562 234.652344 291.007812 C 227.832031 275.273438 215.28125 263.800781 200.46875 257.953125 C 185.667969 252.054688 168.664062 251.777344 152.964844 258.527344 Z M 152.964844 258.527344 " fill-opacity="1" fill-rule="evenodd"></path><path fill="#000000" d="M 651.039062 274.023438 C 674.132812 283.984375 684.636719 310.515625 674.71875 333.542969 C 664.757812 356.632812 638.214844 367.132812 615.121094 357.171875 C 592.109375 347.253906 581.605469 320.679688 591.558594 297.6875 C 596.519531 286.144531 605.628906 277.78125 616.355469 273.519531 C 627.136719 269.253906 639.53125 269.070312 651.039062 274.023438 Z M 576.070312 291 C 562.5 322.34375 576.992188 359.121094 608.417969 372.636719 C 639.878906 386.199219 676.617188 371.625 690.1875 340.207031 C 703.75 308.78125 689.175781 272.082031 657.667969 258.519531 C 641.976562 251.769531 624.960938 252.054688 610.164062 257.945312 C 595.398438 263.792969 582.839844 275.265625 576.070312 291 Z M 576.070312 291 " fill-opacity="1" fill-rule="evenodd"></path><path fill="#000000" d="M 145.183594 406.539062 L 145.21875 406.539062 L 173.617188 406.578125 C 177.574219 406.613281 187.1875 411.300781 193.382812 418.085938 L 240.226562 469.191406 C 241.855469 470.9375 244.144531 471.90625 246.503906 471.90625 L 297.421875 471.90625 C 303.460938 471.90625 306.914062 473.839844 309.390625 476.519531 C 311.832031 479.144531 313.230469 482.910156 313.230469 486.785156 C 313.230469 490.652344 311.832031 494.457031 309.390625 497.089844 C 306.914062 499.761719 303.460938 501.664062 297.421875 501.664062 L 236.890625 501.664062 C 232.28125 501.664062 228.449219 499.917969 226.507812 497.4375 L 209.535156 475.894531 C 205.078125 470.277344 196.054688 472.410156 194.65625 479.464844 L 176.09375 574.96875 L 100.820312 574.96875 L 130.222656 424.277344 C 131.316406 418.734375 133.40625 413.890625 135.957031 410.90625 C 138.472656 407.984375 140.957031 406.539062 145.183594 406.539062 Z M 145.21875 389.6875 C 136.113281 389.652344 128.203125 393.980469 123.101562 399.992188 C 117.984375 406.035156 115.15625 413.4375 113.636719 421.03125 L 82.292969 581.804688 C 81.289062 586.992188 85.242188 591.804688 90.546875 591.839844 L 183.074219 591.839844 C 187.066406 591.804688 190.511719 588.976562 191.292969 585.019531 L 207.683594 500.742188 L 214.582031 509.34375 C 220.507812 515.195312 228.5 518.484375 236.816406 518.53125 L 297.429688 518.53125 C 307.496094 518.53125 316.175781 514.625 321.800781 508.53125 C 327.417969 502.453125 330.097656 494.542969 330.097656 486.800781 C 330.097656 479.011719 327.417969 471.109375 321.800781 465.023438 C 316.175781 458.929688 307.496094 455.023438 297.429688 455.023438 L 250.195312 455.023438 L 205.824219 406.667969 C 197.113281 397.171875 185.914062 389.769531 173.625 389.734375 Z M 145.21875 389.6875 " fill-opacity="1" fill-rule="nonzero"></path><path fill="#000000" d="M 231.429688 525.695312 C 226.871094 524.839844 222.445312 527.828125 221.550781 532.390625 L 211.945312 581.796875 C 210.933594 586.984375 214.921875 591.832031 220.242188 591.832031 L 282.734375 591.832031 C 287.386719 591.796875 291.148438 588.03125 291.148438 583.382812 C 291.148438 578.734375 287.394531 574.96875 282.734375 574.96875 L 230.507812 574.96875 L 238.132812 535.605469 C 239.027344 531.007812 236.042969 526.585938 231.429688 525.695312 Z M 231.429688 525.695312 " fill-opacity="1" fill-rule="evenodd"></path></svg>