<svg xmlns="http://www.w3.org/2000/svg" xmlns:xlink="http://www.w3.org/1999/xlink" width="1080" viewBox="0 0 810 809.999993" height="1080" preserveAspectRatio="xMidYMid meet"><defs><clipPath id="cccd02b55b"><path d="M 477 278 L 750 278 L 750 686.210938 L 477 686.210938 Z M 477 278 " clip-rule="nonzero"></path></clipPath><clipPath id="3df4c83767"><path d="M 60 278 L 333 278 L 333 686.210938 L 60 686.210938 Z M 60 278 " clip-rule="nonzero"></path></clipPath></defs><g clip-path="url(#cccd02b55b)"><path fill="#020202" d="M 545.230469 597.816406 C 545.230469 616.421875 545.792969 635.050781 545.066406 653.628906 C 544.28125 673.980469 531.839844 685.886719 512.597656 686.339844 C 493.578125 686.769531 478.40625 675.210938 478.003906 655.59375 C 476.894531 601.136719 476.953125 546.613281 477.941406 492.15625 C 478.28125 473.742188 493.238281 461.8125 512.972656 461.332031 C 537.554688 460.738281 562.160156 460.667969 586.734375 461.304688 C 598.519531 461.609375 603.648438 459.769531 604.632812 445.601562 C 607.027344 411.265625 613.019531 377.261719 623.335938 344.226562 C 635.890625 304.015625 670.894531 278.273438 712.683594 278.5625 C 741.851562 278.761719 754.519531 295.304688 746.804688 324.460938 C 735.132812 368.5625 722.894531 412.496094 710.753906 456.457031 C 691.238281 527.09375 691.175781 527.074219 617.046875 527.074219 C 599.757812 527.074219 582.417969 528 565.21875 526.796875 C 550.183594 525.722656 543.484375 529.320312 545.015625 546.019531 C 546.59375 563.148438 545.371094 580.539062 545.371094 597.816406 C 545.328125 597.816406 545.277344 597.816406 545.230469 597.816406 Z M 545.230469 597.816406 " fill-opacity="1" fill-rule="evenodd"></path></g><g clip-path="url(#3df4c83767)"><path fill="#010101" d="M 332.660156 573.875 C 332.660156 599.144531 332.984375 624.402344 332.566406 649.664062 C 332.1875 672.765625 318.265625 686.757812 297.167969 686.296875 C 276.910156 685.859375 264.699219 672.390625 264.53125 649.4375 C 264.296875 614.867188 263.753906 580.269531 264.8125 545.734375 C 265.257812 531.347656 262.320312 525.921875 246.589844 526.65625 C 216.738281 528.054688 186.757812 527.277344 156.847656 526.988281 C 130.125 526.734375 115.519531 515.574219 108.210938 489.238281 C 92.625 433.164062 77.269531 377.007812 62.347656 320.742188 C 55.664062 295.535156 68.777344 279.207031 94.921875 278.570312 C 138.6875 277.496094 176.074219 304.433594 188.132812 347.601562 C 196.875 378.878906 203.417969 410.828125 204.851562 443.390625 C 205.425781 456.597656 208.851562 462.285156 223.265625 461.4375 C 244.464844 460.179688 265.796875 461.035156 287.078125 461.121094 C 321.253906 461.261719 332.609375 472.484375 332.667969 506.050781 C 332.695312 528.664062 332.660156 551.269531 332.660156 573.875 Z M 332.660156 573.875 " fill-opacity="1" fill-rule="evenodd"></path></g><path fill="#010101" d="M 407.253906 242.601562 C 427.835938 242.601562 448.414062 242.382812 469.003906 242.644531 C 505.136719 243.101562 531.253906 269.015625 532.347656 305.183594 C 532.511719 310.496094 532.398438 315.804688 532.398438 321.117188 C 532.40625 347.679688 532.382812 346.917969 506.785156 347.730469 C 493.4375 348.160156 487.261719 345.257812 488.914062 330.601562 C 489.640625 324.253906 492.800781 312.707031 483.269531 312.339844 C 472.675781 311.910156 476.230469 323.648438 477.042969 329.710938 C 479.15625 345.398438 472.605469 348.210938 458.332031 347.785156 C 423.824219 346.71875 389.265625 346.71875 354.769531 347.785156 C 340.566406 348.210938 335.4375 343.816406 337.65625 330.0625 C 338.183594 326.839844 337.832031 323.421875 337.507812 320.128906 C 337.132812 316.121094 336.3125 311.371094 331.261719 311.65625 C 326.929688 311.910156 324.738281 315.621094 325.015625 320.226562 C 325.050781 320.890625 325.113281 321.5625 325.015625 322.21875 C 323.777344 330.429688 329.359375 343.207031 321.765625 346.019531 C 311.242188 349.914062 298.269531 347.222656 286.335938 347.335938 C 282.214844 347.371094 280.414062 344.988281 280.589844 341.179688 C 281.480469 320.792969 276.394531 299.613281 285.453125 280.25 C 296.375 256.925781 315.050781 243.273438 341.511719 242.691406 C 363.410156 242.21875 385.328125 242.601562 407.253906 242.601562 Z M 407.253906 242.601562 " fill-opacity="1" fill-rule="evenodd"></path><path fill="#010101" d="M 408.496094 410.453125 C 353.957031 410.453125 299.40625 409.691406 244.902344 410.90625 C 228.347656 411.273438 228.199219 403.484375 229.414062 391.953125 C 230.5 381.523438 223.597656 368.351562 244.886719 368.527344 C 353.285156 369.453125 461.695312 369.4375 570.085938 368.492188 C 588.761719 368.316406 584.585938 379.085938 584.085938 388.6875 C 583.597656 398.109375 590.621094 411.335938 570.085938 410.863281 C 516.246094 409.632812 462.359375 410.453125 408.496094 410.453125 Z M 408.496094 410.453125 " fill-opacity="1" fill-rule="evenodd"></path><path fill="#020202" d="M 628.742188 590.09375 C 617.441406 590.09375 606.136719 590.015625 594.832031 590.113281 C 583.058594 590.207031 575.132812 584.75 574.566406 572.941406 C 573.929688 560.023438 582.953125 556.257812 594.371094 556.300781 C 612.976562 556.363281 631.601562 556.390625 650.207031 556.285156 C 692.355469 556.082031 717.128906 537.398438 728.320312 496.800781 C 742.898438 443.90625 757.242188 390.949219 771.351562 337.941406 C 774.59375 325.746094 779.859375 315.300781 794.046875 319.492188 C 807.675781 323.511719 807.472656 334.890625 804.128906 347.214844 C 789.800781 400.199219 776.601562 453.488281 761.953125 506.402344 C 747.050781 560.214844 706.65625 590.007812 650.6875 590.09375 C 643.367188 590.105469 636.046875 590.09375 628.742188 590.09375 Z M 628.742188 590.09375 " fill-opacity="1" fill-rule="evenodd"></path><path fill="#020202" d="M 179.316406 590.09375 C 165.8125 589.019531 150.027344 590.777344 134.03125 587.625 C 89.804688 578.90625 61.683594 552.5 49.394531 510.453125 C 33.625 456.5 20.128906 401.894531 5.828125 347.511719 C 2.789062 335.9375 1.878906 323.34375 16.101562 319.386719 C 30.277344 315.441406 35.484375 325.789062 38.742188 338.097656 C 52.597656 390.53125 67.066406 442.804688 81.101562 495.1875 C 92.109375 536.265625 117.566406 556.144531 160.046875 556.300781 C 178.660156 556.363281 197.277344 556.363281 215.890625 556.308594 C 227.308594 556.265625 236.746094 560.546875 236.105469 572.871094 C 235.539062 583.902344 227.484375 590.253906 215.570312 590.128906 C 204.257812 589.988281 192.953125 590.09375 179.316406 590.09375 Z M 179.316406 590.09375 " fill-opacity="1" fill-rule="evenodd"></path><path fill="#020202" d="M 744.035156 204.730469 C 743.992188 234.917969 719.839844 258.960938 689.699219 258.839844 C 659.5 258.699219 635.652344 234.59375 635.785156 204.292969 C 635.90625 174.089844 659.894531 150.375 690.199219 150.480469 C 720.625 150.59375 744.0625 174.21875 744.035156 204.730469 Z M 744.035156 204.730469 " fill-opacity="1" fill-rule="evenodd"></path><path fill="#020202" d="M 173.988281 203.269531 C 174.242188 233.808594 150.898438 258.148438 120.804688 258.753906 C 91.601562 259.339844 65.832031 234.453125 65.117188 204.984375 C 64.382812 174.78125 89.566406 150.191406 121.15625 150.269531 C 150.699219 150.359375 173.742188 173.460938 173.988281 203.269531 Z M 173.988281 203.269531 " fill-opacity="1" fill-rule="evenodd"></path><path fill="#020202" d="M 456.976562 174.492188 C 457.089844 203.035156 435.425781 224.558594 406.808594 224.347656 C 378.855469 224.148438 356.160156 201.316406 356.578125 173.828125 C 356.980469 147.46875 379.738281 124.976562 406.441406 124.546875 C 434.464844 124.101562 456.871094 146.226562 456.976562 174.492188 Z M 456.976562 174.492188 " fill-opacity="1" fill-rule="evenodd"></path></svg>